<mxfile host="app.diagrams.net" agent="Mozilla/5.0 (X11; Linux x86_64) AppleWebKit/537.36 (KHTML, like Gecko) Chrome/128.0.0.0 Safari/537.36" version="26.0.15">
  <diagram name="Page-1" id="1dlACeMduNLvIQKLFd6k">
    <mxGraphModel dx="683" dy="361" grid="1" gridSize="10" guides="1" tooltips="1" connect="1" arrows="1" fold="1" page="1" pageScale="1" pageWidth="850" pageHeight="1100" math="0" shadow="0">
      <root>
        <mxCell id="0" />
        <mxCell id="1" parent="0" />
        <mxCell id="uH7hZk817uCltiuJrhX8-3" value="Sơ đồ giải thích sự phối hợp CCUS trong một trang" style="text;whiteSpace=wrap;" vertex="1" parent="1">
          <mxGeometry x="210" y="20" width="560" height="30" as="geometry" />
        </mxCell>
        <mxCell id="uH7hZk817uCltiuJrhX8-7" value="" style="group;fontSize=10;" vertex="1" connectable="0" parent="1">
          <mxGeometry x="170" y="143" width="120" height="30" as="geometry" />
        </mxCell>
        <mxCell id="uH7hZk817uCltiuJrhX8-4" value="" style="rounded=0;whiteSpace=wrap;html=1;" vertex="1" parent="uH7hZk817uCltiuJrhX8-7">
          <mxGeometry width="120" height="30" as="geometry" />
        </mxCell>
        <mxCell id="uH7hZk817uCltiuJrhX8-6" value="&lt;font style=&quot;font-size: 7px;&quot;&gt;ID user + MK trong Buildee&lt;/font&gt;" style="rounded=1;whiteSpace=wrap;html=1;" vertex="1" parent="uH7hZk817uCltiuJrhX8-7">
          <mxGeometry x="15" y="3.75" width="90" height="22.5" as="geometry" />
        </mxCell>
        <mxCell id="uH7hZk817uCltiuJrhX8-8" value="Buildee" style="text;html=1;align=center;verticalAlign=middle;whiteSpace=wrap;rounded=0;" vertex="1" parent="1">
          <mxGeometry x="125" y="117" width="60" height="30" as="geometry" />
        </mxCell>
        <mxCell id="uH7hZk817uCltiuJrhX8-9" value="" style="group;fontSize=10;" vertex="1" connectable="0" parent="1">
          <mxGeometry x="380" y="143" width="120" height="30" as="geometry" />
        </mxCell>
        <mxCell id="uH7hZk817uCltiuJrhX8-10" value="" style="rounded=0;whiteSpace=wrap;html=1;" vertex="1" parent="uH7hZk817uCltiuJrhX8-9">
          <mxGeometry width="120" height="30" as="geometry" />
        </mxCell>
        <mxCell id="uH7hZk817uCltiuJrhX8-11" value="&lt;font style=&quot;font-size: 7px;&quot;&gt;ID user + MK trong CCUS&lt;/font&gt;" style="rounded=1;whiteSpace=wrap;html=1;" vertex="1" parent="uH7hZk817uCltiuJrhX8-9">
          <mxGeometry x="15" y="3.75" width="90" height="22.5" as="geometry" />
        </mxCell>
        <mxCell id="uH7hZk817uCltiuJrhX8-12" value="CCUS" style="text;html=1;align=center;verticalAlign=middle;whiteSpace=wrap;rounded=0;" vertex="1" parent="1">
          <mxGeometry x="350" y="117" width="60" height="30" as="geometry" />
        </mxCell>
        <mxCell id="uH7hZk817uCltiuJrhX8-13" value="&lt;div&gt;&lt;font style=&quot;font-size: 9px;&quot;&gt;Có một hệ thống external gọi là CCUS,&lt;/font&gt;&lt;/div&gt;&lt;div&gt;&lt;font style=&quot;font-size: 9px;&quot;&gt;User công ty cần ID và mật khẩu bên CCUS&lt;/font&gt;&lt;/div&gt;" style="rounded=0;whiteSpace=wrap;html=1;align=left;fillColor=#fff2cc;strokeColor=#d6b656;" vertex="1" parent="1">
          <mxGeometry x="395" y="60" width="190" height="40" as="geometry" />
        </mxCell>
        <mxCell id="uH7hZk817uCltiuJrhX8-15" style="edgeStyle=orthogonalEdgeStyle;rounded=0;orthogonalLoop=1;jettySize=auto;html=1;entryX=0.5;entryY=0;entryDx=0;entryDy=0;" edge="1" parent="1" source="uH7hZk817uCltiuJrhX8-14" target="uH7hZk817uCltiuJrhX8-6">
          <mxGeometry relative="1" as="geometry">
            <mxPoint x="335" y="90" as="sourcePoint" />
          </mxGeometry>
        </mxCell>
        <mxCell id="uH7hZk817uCltiuJrhX8-16" style="edgeStyle=orthogonalEdgeStyle;rounded=0;orthogonalLoop=1;jettySize=auto;html=1;entryX=0.5;entryY=0;entryDx=0;entryDy=0;" edge="1" parent="1" source="uH7hZk817uCltiuJrhX8-14" target="uH7hZk817uCltiuJrhX8-11">
          <mxGeometry relative="1" as="geometry" />
        </mxCell>
        <mxCell id="uH7hZk817uCltiuJrhX8-14" value="&lt;div&gt;&lt;br&gt;&lt;/div&gt;" style="shape=umlActor;verticalLabelPosition=bottom;verticalAlign=top;html=1;outlineConnect=0;" vertex="1" parent="1">
          <mxGeometry x="330" y="95" width="10" height="20" as="geometry" />
        </mxCell>
        <mxCell id="uH7hZk817uCltiuJrhX8-17" value="&lt;div&gt;&lt;font size=&quot;1&quot;&gt;CCUS có t&lt;/font&gt;&lt;span style=&quot;font-size: x-small; background-color: transparent; color: light-dark(rgb(0, 0, 0), rgb(255, 255, 255));&quot;&gt;hông tin về worker, thông tin công trường, ...&lt;/span&gt;&lt;/div&gt;" style="rounded=0;whiteSpace=wrap;html=1;align=left;fillColor=#fff2cc;strokeColor=#d6b656;" vertex="1" parent="1">
          <mxGeometry x="395" y="180" width="190" height="40" as="geometry" />
        </mxCell>
        <mxCell id="uH7hZk817uCltiuJrhX8-19" value="CCUS" style="text;html=1;align=center;verticalAlign=middle;whiteSpace=wrap;rounded=0;" vertex="1" parent="1">
          <mxGeometry x="425" y="218" width="60" height="30" as="geometry" />
        </mxCell>
        <mxCell id="uH7hZk817uCltiuJrhX8-29" value="&lt;div&gt;Chủ công ty&lt;/div&gt;" style="shape=umlActor;verticalLabelPosition=bottom;verticalAlign=top;html=1;outlineConnect=0;" vertex="1" parent="1">
          <mxGeometry x="202" y="236" width="18" height="36" as="geometry" />
        </mxCell>
        <mxCell id="uH7hZk817uCltiuJrhX8-34" value="" style="endArrow=classic;html=1;rounded=0;entryX=0;entryY=0.25;entryDx=0;entryDy=0;" edge="1" parent="1" target="uH7hZk817uCltiuJrhX8-20">
          <mxGeometry width="50" height="50" relative="1" as="geometry">
            <mxPoint x="230" y="250" as="sourcePoint" />
            <mxPoint x="280" y="250" as="targetPoint" />
          </mxGeometry>
        </mxCell>
        <mxCell id="uH7hZk817uCltiuJrhX8-36" value="Đăng ký" style="edgeLabel;html=1;align=center;verticalAlign=middle;resizable=0;points=[];" vertex="1" connectable="0" parent="uH7hZk817uCltiuJrhX8-34">
          <mxGeometry x="-0.2495" y="-1" relative="1" as="geometry">
            <mxPoint x="24" y="-15" as="offset" />
          </mxGeometry>
        </mxCell>
        <mxCell id="uH7hZk817uCltiuJrhX8-35" value="" style="endArrow=classic;html=1;rounded=0;exitX=0;exitY=1;exitDx=0;exitDy=0;" edge="1" parent="1" source="uH7hZk817uCltiuJrhX8-20">
          <mxGeometry width="50" height="50" relative="1" as="geometry">
            <mxPoint x="240" y="260" as="sourcePoint" />
            <mxPoint x="230" y="260" as="targetPoint" />
          </mxGeometry>
        </mxCell>
        <mxCell id="uH7hZk817uCltiuJrhX8-38" value="&lt;div&gt;&lt;font&gt;ID công ty&lt;span style=&quot;background-color: transparent; color: light-dark(rgb(0, 0, 0), rgb(255, 255, 255));&quot;&gt;/&lt;/span&gt;&lt;/font&gt;&lt;/div&gt;&lt;div&gt;&lt;span style=&quot;background-color: transparent; color: light-dark(rgb(0, 0, 0), rgb(255, 255, 255));&quot;&gt;&lt;font&gt;ID admin/&lt;/font&gt;&lt;/span&gt;&lt;/div&gt;&lt;div&gt;&lt;span style=&quot;background-color: transparent; color: light-dark(rgb(0, 0, 0), rgb(255, 255, 255));&quot;&gt;&lt;font&gt;Mật khẩu,...&lt;/font&gt;&lt;/span&gt;&lt;/div&gt;" style="text;html=1;align=center;verticalAlign=middle;whiteSpace=wrap;rounded=0;" vertex="1" parent="1">
          <mxGeometry x="280" y="260" width="80" height="43" as="geometry" />
        </mxCell>
        <mxCell id="uH7hZk817uCltiuJrhX8-39" value="Worker" style="shape=umlActor;verticalLabelPosition=bottom;verticalAlign=top;html=1;outlineConnect=0;" vertex="1" parent="1">
          <mxGeometry x="202" y="334" width="18" height="36" as="geometry" />
        </mxCell>
        <mxCell id="uH7hZk817uCltiuJrhX8-40" value="" style="endArrow=classic;html=1;rounded=0;exitX=0;exitY=0.75;exitDx=0;exitDy=0;" edge="1" parent="1" source="uH7hZk817uCltiuJrhX8-26">
          <mxGeometry width="50" height="50" relative="1" as="geometry">
            <mxPoint x="400" y="364.83" as="sourcePoint" />
            <mxPoint x="225" y="364.83" as="targetPoint" />
          </mxGeometry>
        </mxCell>
        <mxCell id="uH7hZk817uCltiuJrhX8-41" value="" style="endArrow=classic;html=1;rounded=0;entryX=0;entryY=0.25;entryDx=0;entryDy=0;" edge="1" parent="1" target="uH7hZk817uCltiuJrhX8-26">
          <mxGeometry width="50" height="50" relative="1" as="geometry">
            <mxPoint x="225" y="354.83" as="sourcePoint" />
            <mxPoint x="400" y="355.83" as="targetPoint" />
          </mxGeometry>
        </mxCell>
        <mxCell id="uH7hZk817uCltiuJrhX8-42" value="Đăng ký" style="edgeLabel;html=1;align=center;verticalAlign=middle;resizable=0;points=[];" vertex="1" connectable="0" parent="uH7hZk817uCltiuJrhX8-41">
          <mxGeometry x="-0.2495" y="-1" relative="1" as="geometry">
            <mxPoint x="24" y="-15" as="offset" />
          </mxGeometry>
        </mxCell>
        <mxCell id="uH7hZk817uCltiuJrhX8-43" value="&lt;div&gt;&lt;font style=&quot;font-size: 10px;&quot;&gt;ID worker/&lt;/font&gt;&lt;/div&gt;&lt;div&gt;&lt;span style=&quot;background-color: transparent; color: light-dark(rgb(0, 0, 0), rgb(255, 255, 255));&quot;&gt;&lt;font style=&quot;font-size: 10px;&quot;&gt;Mật khẩu/&lt;/font&gt;&lt;/span&gt;&lt;/div&gt;&lt;div&gt;&lt;font style=&quot;font-size: 10px;&quot;&gt;Thẻ CCUS/&lt;/font&gt;&lt;/div&gt;&lt;div&gt;&lt;font style=&quot;font-size: 10px;&quot;&gt;Mã số nhận dạng cá nhân,...&lt;/font&gt;&lt;/div&gt;" style="text;html=1;align=center;verticalAlign=middle;whiteSpace=wrap;rounded=0;" vertex="1" parent="1">
          <mxGeometry x="251" y="370" width="140" height="43" as="geometry" />
        </mxCell>
        <mxCell id="uH7hZk817uCltiuJrhX8-44" value="&lt;div&gt;&lt;font style=&quot;font-size: 8px;&quot;&gt;Worker tự nộp đơn hoặc người đại diện của họ nộp đơn bằng cách đính kèm các tài liệu chứng nhận&lt;br&gt;&lt;/font&gt;&lt;/div&gt;&lt;div&gt;&lt;font style=&quot;font-size: 8px;&quot;&gt;(Trên màn hình CCUS,k&lt;span style=&quot;background-color: transparent; color: light-dark(rgb(0, 0, 0), rgb(255, 255, 255));&quot;&gt;hông thể thêm / thay đổi tự do)&lt;/span&gt;&lt;/font&gt;&lt;/div&gt;" style="rounded=0;whiteSpace=wrap;html=1;align=left;fillColor=#d5e8d4;strokeColor=#82b366;" vertex="1" parent="1">
          <mxGeometry x="530" y="350" width="200" height="50" as="geometry" />
        </mxCell>
        <mxCell id="uH7hZk817uCltiuJrhX8-45" value="&lt;div&gt;&lt;font size=&quot;1&quot;&gt;Buildee muốn gì khi hợp tác với CCUS&lt;/font&gt;&lt;/div&gt;&lt;div&gt;&lt;font size=&quot;1&quot;&gt;1. Đ&lt;/font&gt;&lt;span style=&quot;background-color: transparent;&quot;&gt;&lt;font size=&quot;1&quot;&gt;ưa vào master data đã đăng ký (đặc biệt là thông tin worker) để giảm công việc nhập liệu.&lt;/font&gt;&lt;/span&gt;&lt;/div&gt;&lt;div&gt;&lt;font size=&quot;1&quot;&gt;2. Gửi lịch sử công việc (lịch sử vào ra) đến CCUS&lt;/font&gt;&lt;/div&gt;" style="rounded=0;whiteSpace=wrap;html=1;align=left;fillColor=#fff2cc;strokeColor=#d6b656;" vertex="1" parent="1">
          <mxGeometry x="280" y="440" width="240" height="70" as="geometry" />
        </mxCell>
        <mxCell id="uH7hZk817uCltiuJrhX8-46" value="Buildee" style="rounded=0;whiteSpace=wrap;html=1;" vertex="1" parent="1">
          <mxGeometry x="131" y="550" width="120" height="140" as="geometry" />
        </mxCell>
        <mxCell id="uH7hZk817uCltiuJrhX8-47" value="" style="group" vertex="1" connectable="0" parent="1">
          <mxGeometry x="400" y="245" width="120" height="135" as="geometry" />
        </mxCell>
        <mxCell id="uH7hZk817uCltiuJrhX8-18" value="" style="rounded=0;whiteSpace=wrap;html=1;" vertex="1" parent="uH7hZk817uCltiuJrhX8-47">
          <mxGeometry width="120" height="135" as="geometry" />
        </mxCell>
        <mxCell id="uH7hZk817uCltiuJrhX8-20" value="&lt;font style=&quot;font-size: 8px;&quot;&gt;Data master công ty&lt;/font&gt;" style="rounded=1;whiteSpace=wrap;html=1;" vertex="1" parent="uH7hZk817uCltiuJrhX8-47">
          <mxGeometry x="5" y="3" width="110" height="12" as="geometry" />
        </mxCell>
        <mxCell id="uH7hZk817uCltiuJrhX8-21" value="&lt;font style=&quot;font-size: 8px;&quot;&gt;Data master công trường&lt;/font&gt;" style="rounded=1;whiteSpace=wrap;html=1;" vertex="1" parent="uH7hZk817uCltiuJrhX8-47">
          <mxGeometry x="5" y="22" width="110" height="17" as="geometry" />
        </mxCell>
        <mxCell id="uH7hZk817uCltiuJrhX8-23" value="&lt;font style=&quot;font-size: 8px;&quot;&gt;Data master thể chế thi công / worker thể chế thi công&lt;/font&gt;" style="rounded=1;whiteSpace=wrap;html=1;" vertex="1" parent="uH7hZk817uCltiuJrhX8-47">
          <mxGeometry x="5" y="45" width="110" height="30" as="geometry" />
        </mxCell>
        <mxCell id="uH7hZk817uCltiuJrhX8-25" value="&lt;font style=&quot;font-size: 8px;&quot;&gt;Data master lịch sử công việc&lt;/font&gt;" style="rounded=1;whiteSpace=wrap;html=1;" vertex="1" parent="uH7hZk817uCltiuJrhX8-47">
          <mxGeometry x="5" y="80" width="110" height="20" as="geometry" />
        </mxCell>
        <mxCell id="uH7hZk817uCltiuJrhX8-26" value="&lt;font style=&quot;font-size: 8px;&quot;&gt;Data master worker&lt;/font&gt;" style="rounded=1;whiteSpace=wrap;html=1;" vertex="1" parent="uH7hZk817uCltiuJrhX8-47">
          <mxGeometry x="5" y="105" width="110" height="20" as="geometry" />
        </mxCell>
        <mxCell id="uH7hZk817uCltiuJrhX8-48" value="" style="group" vertex="1" connectable="0" parent="1">
          <mxGeometry x="429" y="551" width="120" height="135" as="geometry" />
        </mxCell>
        <mxCell id="uH7hZk817uCltiuJrhX8-49" value="" style="rounded=0;whiteSpace=wrap;html=1;" vertex="1" parent="uH7hZk817uCltiuJrhX8-48">
          <mxGeometry width="120" height="135" as="geometry" />
        </mxCell>
        <mxCell id="uH7hZk817uCltiuJrhX8-50" value="&lt;font style=&quot;font-size: 8px;&quot;&gt;Data master công ty&lt;/font&gt;" style="rounded=1;whiteSpace=wrap;html=1;" vertex="1" parent="uH7hZk817uCltiuJrhX8-48">
          <mxGeometry x="5" y="3" width="110" height="12" as="geometry" />
        </mxCell>
        <mxCell id="uH7hZk817uCltiuJrhX8-51" value="&lt;font style=&quot;font-size: 8px;&quot;&gt;Data master công trường&lt;/font&gt;" style="rounded=1;whiteSpace=wrap;html=1;" vertex="1" parent="uH7hZk817uCltiuJrhX8-48">
          <mxGeometry x="5" y="22" width="110" height="17" as="geometry" />
        </mxCell>
        <mxCell id="uH7hZk817uCltiuJrhX8-52" value="&lt;font style=&quot;font-size: 8px;&quot;&gt;Data master thể chế thi công / worker thể chế thi công&lt;/font&gt;" style="rounded=1;whiteSpace=wrap;html=1;" vertex="1" parent="uH7hZk817uCltiuJrhX8-48">
          <mxGeometry x="5" y="45" width="110" height="30" as="geometry" />
        </mxCell>
        <mxCell id="uH7hZk817uCltiuJrhX8-53" value="&lt;font style=&quot;font-size: 8px;&quot;&gt;Data master lịch sử công việc&lt;/font&gt;" style="rounded=1;whiteSpace=wrap;html=1;" vertex="1" parent="uH7hZk817uCltiuJrhX8-48">
          <mxGeometry x="5" y="80" width="110" height="20" as="geometry" />
        </mxCell>
        <mxCell id="uH7hZk817uCltiuJrhX8-54" value="&lt;font style=&quot;font-size: 8px;&quot;&gt;Data master worker&lt;/font&gt;" style="rounded=1;whiteSpace=wrap;html=1;" vertex="1" parent="uH7hZk817uCltiuJrhX8-48">
          <mxGeometry x="5" y="105" width="110" height="20" as="geometry" />
        </mxCell>
        <mxCell id="uH7hZk817uCltiuJrhX8-55" value="" style="shape=flexArrow;endArrow=classic;html=1;rounded=0;width=31.2;endSize=8.532;" edge="1" parent="1">
          <mxGeometry width="50" height="50" relative="1" as="geometry">
            <mxPoint x="420" y="580" as="sourcePoint" />
            <mxPoint x="258" y="580" as="targetPoint" />
            <Array as="points">
              <mxPoint x="328" y="580" />
            </Array>
          </mxGeometry>
        </mxCell>
        <mxCell id="uH7hZk817uCltiuJrhX8-57" value="&lt;font style=&quot;font-size: 9px;&quot;&gt;Thu thập thông tin chính&amp;nbsp;&lt;/font&gt;&lt;div&gt;&lt;font style=&quot;font-size: 9px;&quot;&gt;(công ty, công trường, worker)&lt;/font&gt;&lt;/div&gt;" style="edgeLabel;html=1;align=center;verticalAlign=middle;resizable=0;points=[];" vertex="1" connectable="0" parent="uH7hZk817uCltiuJrhX8-55">
          <mxGeometry x="0.1238" y="-1" relative="1" as="geometry">
            <mxPoint x="21" as="offset" />
          </mxGeometry>
        </mxCell>
        <mxCell id="uH7hZk817uCltiuJrhX8-58" value="" style="shape=flexArrow;endArrow=classic;html=1;rounded=0;width=48.8;endSize=5.888;" edge="1" parent="1">
          <mxGeometry width="50" height="50" relative="1" as="geometry">
            <mxPoint x="262" y="633" as="sourcePoint" />
            <mxPoint x="422" y="633" as="targetPoint" />
            <Array as="points">
              <mxPoint x="330" y="632.8" />
            </Array>
          </mxGeometry>
        </mxCell>
        <mxCell id="uH7hZk817uCltiuJrhX8-59" value="&lt;font size=&quot;1&quot;&gt;Gửi master data (công trường,&lt;/font&gt;&lt;div&gt;&lt;font size=&quot;1&quot;&gt;&amp;nbsp;thể chế thi công,&amp;nbsp;&lt;/font&gt;&lt;/div&gt;&lt;div&gt;&lt;font size=&quot;1&quot;&gt;worker thể chế thi công)&lt;/font&gt;&lt;br&gt;&lt;/div&gt;" style="edgeLabel;html=1;align=center;verticalAlign=middle;resizable=0;points=[];" vertex="1" connectable="0" parent="uH7hZk817uCltiuJrhX8-58">
          <mxGeometry x="0.1238" y="-1" relative="1" as="geometry">
            <mxPoint x="-15" as="offset" />
          </mxGeometry>
        </mxCell>
        <mxCell id="uH7hZk817uCltiuJrhX8-60" value="" style="shape=flexArrow;endArrow=classic;html=1;rounded=0;width=17.2;endSize=3.34;endWidth=15.12;" edge="1" parent="1">
          <mxGeometry width="50" height="50" relative="1" as="geometry">
            <mxPoint x="260" y="680.2" as="sourcePoint" />
            <mxPoint x="420" y="680.2" as="targetPoint" />
            <Array as="points">
              <mxPoint x="328" y="680" />
            </Array>
          </mxGeometry>
        </mxCell>
        <mxCell id="uH7hZk817uCltiuJrhX8-61" value="&lt;div&gt;&lt;font size=&quot;1&quot;&gt;Gửi lịch sử công việc&lt;/font&gt;&lt;br&gt;&lt;/div&gt;" style="edgeLabel;html=1;align=center;verticalAlign=middle;resizable=0;points=[];" vertex="1" connectable="0" parent="uH7hZk817uCltiuJrhX8-60">
          <mxGeometry x="0.1238" y="-1" relative="1" as="geometry">
            <mxPoint x="-15" as="offset" />
          </mxGeometry>
        </mxCell>
        <mxCell id="uH7hZk817uCltiuJrhX8-62" value="&lt;div&gt;&lt;font size=&quot;1&quot;&gt;Rào cản lớn nhất là việc thu thập thông tin worker.&lt;/font&gt;&lt;/div&gt;&lt;div&gt;&lt;font size=&quot;1&quot;&gt;Nhiều param cần phải được nhập&lt;/font&gt;&lt;/div&gt;" style="rounded=0;whiteSpace=wrap;html=1;align=left;fillColor=#fff2cc;strokeColor=#d6b656;" vertex="1" parent="1">
          <mxGeometry x="285" y="750" width="230" height="40" as="geometry" />
        </mxCell>
        <mxCell id="uH7hZk817uCltiuJrhX8-75" value="Buildee" style="rounded=0;whiteSpace=wrap;html=1;" vertex="1" parent="1">
          <mxGeometry x="131" y="816" width="120" height="204" as="geometry" />
        </mxCell>
        <mxCell id="uH7hZk817uCltiuJrhX8-76" value="" style="group" vertex="1" connectable="0" parent="1">
          <mxGeometry x="540" y="806" width="160" height="214" as="geometry" />
        </mxCell>
        <mxCell id="uH7hZk817uCltiuJrhX8-77" value="" style="rounded=0;whiteSpace=wrap;html=1;" vertex="1" parent="uH7hZk817uCltiuJrhX8-76">
          <mxGeometry width="160" height="214" as="geometry" />
        </mxCell>
        <mxCell id="uH7hZk817uCltiuJrhX8-78" value="&lt;font style=&quot;font-size: 8px;&quot;&gt;Data master công ty&lt;/font&gt;" style="rounded=1;whiteSpace=wrap;html=1;" vertex="1" parent="uH7hZk817uCltiuJrhX8-76">
          <mxGeometry x="6.666666666666665" y="4.7555555555555555" width="146.66666666666663" height="19.022222222222222" as="geometry" />
        </mxCell>
        <mxCell id="uH7hZk817uCltiuJrhX8-79" value="&lt;font style=&quot;font-size: 8px;&quot;&gt;Data master công trường&lt;/font&gt;" style="rounded=1;whiteSpace=wrap;html=1;" vertex="1" parent="uH7hZk817uCltiuJrhX8-76">
          <mxGeometry x="6.666666666666665" y="34.87407407407407" width="146.66666666666663" height="26.94814814814815" as="geometry" />
        </mxCell>
        <mxCell id="uH7hZk817uCltiuJrhX8-80" value="&lt;font style=&quot;font-size: 8px;&quot;&gt;Data master thể chế thi công / worker thể chế thi công&lt;/font&gt;" style="rounded=1;whiteSpace=wrap;html=1;" vertex="1" parent="uH7hZk817uCltiuJrhX8-76">
          <mxGeometry x="6.666666666666665" y="71.33333333333334" width="146.66666666666663" height="47.55555555555556" as="geometry" />
        </mxCell>
        <mxCell id="uH7hZk817uCltiuJrhX8-81" value="&lt;font style=&quot;font-size: 8px;&quot;&gt;Data master lịch sử công việc&lt;/font&gt;" style="rounded=1;whiteSpace=wrap;html=1;" vertex="1" parent="uH7hZk817uCltiuJrhX8-76">
          <mxGeometry x="6.666666666666665" y="126.81481481481481" width="146.66666666666663" height="31.703703703703702" as="geometry" />
        </mxCell>
        <mxCell id="uH7hZk817uCltiuJrhX8-82" value="&lt;font style=&quot;font-size: 8px;&quot;&gt;Data master worker&lt;/font&gt;" style="rounded=1;whiteSpace=wrap;html=1;" vertex="1" parent="uH7hZk817uCltiuJrhX8-76">
          <mxGeometry x="6.666666666666665" y="166.44444444444446" width="146.66666666666663" height="31.703703703703702" as="geometry" />
        </mxCell>
        <mxCell id="uH7hZk817uCltiuJrhX8-85" value="" style="shape=flexArrow;endArrow=classic;html=1;rounded=0;width=57.2;endSize=7.744;entryX=0;entryY=0.215;entryDx=0;entryDy=0;entryPerimeter=0;" edge="1" parent="1">
          <mxGeometry width="50" height="50" relative="1" as="geometry">
            <mxPoint x="259" y="848" as="sourcePoint" />
            <mxPoint x="534" y="848.0250000000001" as="targetPoint" />
            <Array as="points">
              <mxPoint x="327" y="847.8" />
            </Array>
          </mxGeometry>
        </mxCell>
        <mxCell id="uH7hZk817uCltiuJrhX8-89" value="&lt;div&gt;ID công ty / ID quản trị viên / mật khẩu của&amp;nbsp;&lt;/div&gt;&lt;div&gt;công ty worker trực thuộc&lt;/div&gt;&lt;div&gt;ID worker/ Ngày sinh của worker&lt;/div&gt;&lt;div&gt;+&lt;span style=&quot;background-color: light-dark(#ffffff, var(--ge-dark-color, #121212)); color: light-dark(rgb(0, 0, 0), rgb(255, 255, 255));&quot;&gt;(Mã số nhận dạng của worker hoặc tên/kana)&lt;/span&gt;&lt;/div&gt;" style="edgeLabel;html=1;align=center;verticalAlign=middle;resizable=0;points=[];" vertex="1" connectable="0" parent="uH7hZk817uCltiuJrhX8-85">
          <mxGeometry x="0.3151" y="-2" relative="1" as="geometry">
            <mxPoint x="-44" y="-3" as="offset" />
          </mxGeometry>
        </mxCell>
        <mxCell id="uH7hZk817uCltiuJrhX8-90" value="" style="shape=flexArrow;endArrow=classic;html=1;rounded=0;width=18.095238095238095;endSize=7.8238095238095235;" edge="1" parent="1">
          <mxGeometry width="50" height="50" relative="1" as="geometry">
            <mxPoint x="530" y="900" as="sourcePoint" />
            <mxPoint x="254" y="900" as="targetPoint" />
            <Array as="points">
              <mxPoint x="324" y="900" />
            </Array>
          </mxGeometry>
        </mxCell>
        <mxCell id="uH7hZk817uCltiuJrhX8-91" value="&lt;font size=&quot;1&quot;&gt;Khóa xác thực&lt;/font&gt;" style="edgeLabel;html=1;align=center;verticalAlign=middle;resizable=0;points=[];" vertex="1" connectable="0" parent="uH7hZk817uCltiuJrhX8-90">
          <mxGeometry x="0.1238" y="-1" relative="1" as="geometry">
            <mxPoint x="21" as="offset" />
          </mxGeometry>
        </mxCell>
        <mxCell id="uH7hZk817uCltiuJrhX8-92" value="" style="shape=flexArrow;endArrow=classic;html=1;rounded=0;width=44.76190476190476;endSize=8.547619047619047;entryX=0;entryY=0.215;entryDx=0;entryDy=0;entryPerimeter=0;" edge="1" parent="1">
          <mxGeometry width="50" height="50" relative="1" as="geometry">
            <mxPoint x="260" y="945.2" as="sourcePoint" />
            <mxPoint x="535" y="945.2250000000001" as="targetPoint" />
            <Array as="points">
              <mxPoint x="328" y="945" />
            </Array>
          </mxGeometry>
        </mxCell>
        <mxCell id="uH7hZk817uCltiuJrhX8-93" value="&lt;div&gt;ID công ty / ID quản trị viên / mật khẩu&amp;nbsp;&lt;/div&gt;&lt;div&gt;của công ty mà worker trực thuộc&lt;/div&gt;&lt;div&gt;ID worker /Khóa xác thực&lt;/div&gt;" style="edgeLabel;html=1;align=center;verticalAlign=middle;resizable=0;points=[];" vertex="1" connectable="0" parent="uH7hZk817uCltiuJrhX8-92">
          <mxGeometry x="0.3151" y="-2" relative="1" as="geometry">
            <mxPoint x="-44" y="-3" as="offset" />
          </mxGeometry>
        </mxCell>
        <mxCell id="uH7hZk817uCltiuJrhX8-96" value="" style="shape=flexArrow;endArrow=classic;html=1;rounded=0;width=18.095238095238095;endSize=7.8238095238095235;" edge="1" parent="1">
          <mxGeometry width="50" height="50" relative="1" as="geometry">
            <mxPoint x="530" y="995" as="sourcePoint" />
            <mxPoint x="254" y="995" as="targetPoint" />
            <Array as="points">
              <mxPoint x="324" y="995" />
            </Array>
          </mxGeometry>
        </mxCell>
        <mxCell id="uH7hZk817uCltiuJrhX8-98" value="Thông tin worker" style="edgeLabel;html=1;align=center;verticalAlign=middle;resizable=0;points=[];" vertex="1" connectable="0" parent="uH7hZk817uCltiuJrhX8-96">
          <mxGeometry x="-0.2985" relative="1" as="geometry">
            <mxPoint x="-28" as="offset" />
          </mxGeometry>
        </mxCell>
      </root>
    </mxGraphModel>
  </diagram>
</mxfile>
